<svg version="1.2" xmlns="http://www.w3.org/2000/svg" viewBox="0 0 130 130" width="130" height="130"><style>.a{fill:none;stroke:#2e2e35;stroke-width:4.3}</style><path class="a" d="m37.7 117c17.4-4.9 20.2-17.2 21.2-19.1-9 0-39.5-4.9-47.9-30-8.5-25.3 11.7-45 35.6-48.7 21.1-3.5 71.4-1.4 74.2 35.8 2.2 29.8-22.2 41.1-34.8 42.9-5.9 15.9-34.6 19.4-48.3 19.1z"/><path fill-rule="evenodd" class="a" d="m62.6 42.9c-2.3 0-4.1-1.7-4.1-3.9 0-2.1 1.8-3.8 4.1-3.8 2.3 0 4.2 1.7 4.2 3.8 0 2.2-1.9 3.9-4.2 3.9z"/><path class="a" d="m75.7 80.2c-17.8 6.2-19.1-11.8-16.4-26.5 0.6-4 9.4-4 6.6 1.7-2.8 5.8-2.8 14.7 0 16.8 2.8 2.3 6.7-2 9.8 0 4.7 3.1 1.8 6.2 0 8z"/></svg>