<svg version="1.2" xmlns="http://www.w3.org/2000/svg" viewBox="0 0 120 110" width="120" height="110"><style>.a{fill:none;stroke:#2e2e35;stroke-width:4}</style><path class="a" d="m31.8 106.3c17.8-5 20.7-17.7 21.7-19.6-9.2 0-40.5-5-49.2-30.9-8.7-26 12-46.2 36.6-50.1 21.7-3.5 73.3-1.4 76.2 36.9 2.3 30.6-22.8 42.2-35.7 44.1-6.1 16.4-35.6 19.9-49.6 19.6z"/><path class="a" d="m57.3 22.2c2.5 0 4.3 1.9 4.3 4 0 2-1.8 3.9-4.3 3.9-2.4 0-4.2-1.9-4.2-3.9 0-2.1 1.8-4 4.2-4z"/><path class="a" d="m70.8 68.5c-18.3 6.4-19.6-12.1-16.9-27.3 0.7-4.1 9.7-4.1 6.8 1.8-2.9 5.9-2.9 15.1 0 17.3 2.9 2.3 6.9-2.1 10.1 0 4.8 3.2 1.8 6.3 0 8.2z"/></svg>