<svg version="1.2" xmlns="http://www.w3.org/2000/svg" viewBox="0 0 130 130" width="130" height="130"><defs><clipPath clipPathUnits="userSpaceOnUse" id="cp1"><path d="m-77.29-39.93h258.12v258.74h-258.12z"/></clipPath></defs><style>.a{fill:none;stroke:#ddde97;stroke-width:5.8}</style><g clip-path="url(#cp1)"><path fill-rule="evenodd" class="a" d="m102.3 35.6c2.1 0 2.1 64.5 0 66.3-2.2 1.7-72.4 1.6-74.9 0-2.3-1.7-1.4-64.6 0-66.3"/><path fill-rule="evenodd" class="a" d="m27.3 35.7h74.9"/><path fill-rule="evenodd" class="a" d="m102.3 35.6c0 0-28.9 36.3-35.8 36.3-6.9 0-39.1-36.3-39.1-36.3zm113.7 66.3c-8.6 0-3.6-7.1 0-10.6l42.3-33.6q0 0 0 0l0.1-0.1c1.9-1.1 6.7-1.9 10 4.5zm71.9-53.1c-2.6 7.9-12.2 11.9-19.5 13.3zm-10.4-25.6c10.5 11.2 12.5 19.5 10.4 25.6-2.5-4.9-8.6-13-15.8-10.9 5.8-4.2 6.1-11.2 5.4-14.7zm-9.2 16.8c1.3-1.1 2.7-1.8 3.8-2.1zm0 0c-11.6 4.5-12.4 7.6-10 17.7z"/></g></svg>