<svg version="1.2" xmlns="http://www.w3.org/2000/svg" viewBox="0 0 90 86" width="90" height="86"><defs><clipPath clipPathUnits="userSpaceOnUse" id="cp1"><path d="m-53.51-29.08h178.7v179.45h-178.7z"/></clipPath></defs><style>.a{fill:none;stroke:#2e2e35;stroke-width:4}</style><g clip-path="url(#cp1)"><path fill-rule="evenodd" class="a" d="m6.3 8.3c-1.5 1.8-2.4 66.6 0 68.3 2.5 1.7 74.8 1.8 77 0 2.2-1.8 2.2-68.3 0-68.3m-77 0c0 0 33.1 37.4 40.2 37.4 7.1 0 36.8-37.4 36.8-37.4m-77 0h77m171 27.3l-53.9 41c-8.9 0-3.7-7.3 0-10.9l43.6-34.7m10.3 4.6c7.5-1.4 17.4-5.6 20.1-13.7m-20.1 13.7c-3.4-6.6-8.3-5.8-10.3-4.6m14.2-20.3c5.9-4.4 6.2-11.6 5.5-15.2 10.8 11.5 12.9 20.1 10.7 26.4m-16.2-11.2c-1.2 0.3-2.6 1-3.9 2.1m3.9-2.1c7.4-2.2 13.7 6.1 16.2 11.2m-16.2-11.2q-1.6 1.2-3.9 2.1m0 0c-12 4.6-12.8 7.8-10.3 18.2"/></g></svg>