<svg version="1.2" xmlns="http://www.w3.org/2000/svg" viewBox="0 0 130 130" width="130" height="130"><defs><clipPath clipPathUnits="userSpaceOnUse" id="cp1"><path d="m1.15 5h121.26v136.78h-121.26z"/></clipPath></defs><style>.a{fill:none;stroke:#ddde97;stroke-width:5.4}</style><g clip-path="url(#cp1)"><path fill-rule="evenodd" class="a" d="m-179 42.1v71.2h80.3v-71.2"/><path fill-rule="evenodd" class="a" d="m-179 42.1l42.9 38.9 37.4-38.9"/><path fill-rule="evenodd" class="a" d="m-179 42.1h80.3"/><path fill-rule="evenodd" class="a" d="m79.6 70.6l-56.2 42.7c-9.3 0-3.9-7.6 0-11.4l45.5-36.1"/><path fill-rule="evenodd" class="a" d="m79.6 70.6c7.8-1.5 18.2-5.9 21-14.3"/><path fill-rule="evenodd" class="a" d="m79.6 70.6c-3.5-6.9-8.6-6.1-10.7-4.8"/><path fill-rule="evenodd" class="a" d="m79.6 46.8c10-3.8 10.8-13.6 9.8-18.1 11.3 12 13.5 21 11.2 27.6"/><path fill-rule="evenodd" class="a" d="m79.6 46.8c-12.5 4.8-13.3 8.1-10.7 19"/><path fill-rule="evenodd" class="a" d="m79.6 46.8c9.4-7.6 17.9 3.2 21 9.5"/></g></svg>