<svg version="1.2" xmlns="http://www.w3.org/2000/svg" viewBox="0 0 97 97" width="97" height="97"><defs><clipPath clipPathUnits="userSpaceOnUse" id="cp1"><path d="m-8.94-12.26h116.28v131.17h-116.28z"/></clipPath></defs><style>.a{fill:none;stroke:#2e2e35;stroke-width:4}</style><g clip-path="url(#cp1)"><path fill-rule="evenodd" class="a" d="m-181.7 23.3v68.3h77v-68.3m-77 0l41.1 37.3 35.9-37.3m-77 0h77m171 27.3l-53.9 41c-8.9 0-3.7-7.3 0-10.9l43.6-34.7m10.3 4.6c7.5-1.4 17.4-5.6 20.1-13.7m-20.1 13.7c-3.4-6.6-8.3-5.8-10.3-4.6m10.3-18.2c9.6-3.6 10.3-13 9.4-17.3 10.8 11.5 12.9 20.1 10.7 26.4m-20.1-9.1c-12 4.6-12.8 7.8-10.3 18.2m10.3-18.2c9-7.3 17.2 3.1 20.1 9.1"/></g></svg>