<svg width="686" height="606" viewBox="0 0 686 606" fill="none" xmlns="http://www.w3.org/2000/svg">
<circle cx="334.452" cy="254.485" r="119.059" transform="rotate(-12.0599 334.452 254.485)" fill="#FFE66A" stroke="#CF3E2F" stroke-width="2"/>
<path d="M445.141 213.067C443.446 213.213 441.691 203.103 441.032 201.605C439.198 197.437 434.742 193.942 431.832 190.468C428.909 186.979 427.255 182.507 423.49 179.776C418.322 176.028 414.485 171.518 410.221 166.816C405.769 161.906 401.121 160.386 395.476 157.448C390.821 155.024 387.661 150.507 382.959 148.007C375.178 143.869 368.063 140.317 359.127 139.368C354.895 138.918 350.601 139.137 346.411 138.45C341.862 137.704 337.37 139.094 332.776 138.895C327.733 138.677 323.127 140.511 318.165 140.446C312.058 140.367 304.216 142.437 298.554 144.636C287.216 149.039 275.667 155.95 266.481 164.007C258.154 171.312 249.048 177.174 241.3 185.182C232.172 194.618 224.653 205.032 220.103 217.441C213.729 234.826 214.091 252.414 213.518 270.63" stroke="#CF3E2F" stroke-linecap="round"/>
<path d="M252.307 168.651C251.839 168.751 251.161 168.794 250.799 169.153C244.869 175.025 239.225 182.206 234.448 189.024C220.004 209.64 219.315 237.596 217.275 261.75" stroke="#CF3E2F" stroke-linecap="round"/>
<path d="M443.378 208.597C442.014 202.211 438.086 195.539 435.434 189.474C431.854 181.289 425.269 175.501 419.595 168.897C414.91 163.444 407.365 159.113 401.755 154.491C391.832 146.315 379.317 142.573 367.402 138.407C362.733 136.775 355.948 134.952 351.063 134.809C345.283 134.639 339.45 133.311 333.729 133.486C324.407 133.772 314.185 133.881 305.011 135.583C299.337 136.636 293.615 138.653 288.439 141.188C281.02 144.822 276.659 150.739 270.532 155.873C263.623 161.662 256.156 166.838 250.673 174.026C246.243 179.834 241.376 185.487 237.269 191.518C226.645 207.12 223.72 225.077 220.596 243.272" stroke="#CF3E2F" stroke-linecap="round"/>
<path d="M220.603 231.963C218.163 232.812 218.273 241.103 218.114 242.994C217.522 250.005 218.057 257.625 220.2 264.311C223.307 274.004 223.541 284.931 227.847 294.222C233.79 307.047 236.629 320.695 246.483 331.253C254.421 339.759 260.023 350.842 270.047 357.539C273.504 359.848 279.102 364.649 283.215 365.405C288.34 366.347 293.203 369.552 298.469 369.595C303.543 369.636 308.504 372.123 313.535 371.222C319.325 370.185 326.868 371.469 332.809 371.546C345.215 371.708 358.721 371.368 370.328 366.537C376.343 364.033 382.986 363.472 389.048 360.698C392.109 359.297 394.578 356.794 397.627 355.275C399.377 354.403 403.055 353.177 403.572 351.178" stroke="#CF3E2F" stroke-linecap="round"/>
<path d="M399.05 348.913C399.523 353.644 395.023 356.13 391.731 358.554C385.915 362.836 375.234 364.375 368.162 364.801C361.435 365.206 355.266 367.643 348.439 366.996C342.228 366.407 336.053 366.099 329.818 365.948C324.534 365.82 318.858 363.427 313.834 361.914C309.08 360.484 304.342 359.684 299.635 358.038C295.105 356.455 289.819 357.142 285.489 355.047C280.499 352.633 273.661 350.123 269.963 345.801C267.674 343.126 263.809 341.148 260.84 339.224C257.099 336.801 255.328 333.391 251.837 330.692C249.09 328.569 246.394 326.046 244.177 323.4C241.581 320.301 237.462 317.846 235.215 314.635C233.584 312.306 232.735 309.792 230.683 307.706C228.301 305.284 224.739 301.15 223.456 298.032C221.599 293.519 218.48 289.629 216.77 285.012C215.006 280.247 214.409 274.798 213.353 269.857C212.371 265.259 211.089 260.583 210.726 255.88C210.269 249.973 212.031 244.857 213.261 239.185" stroke="#CF3E2F" stroke-linecap="round"/>
<path d="M441.893 201.646C444.17 219.431 451.512 236.28 449.471 254.545C447.269 274.249 441.095 296.039 432.122 313.848C429.189 319.667 425.079 324.666 422.062 330.401C418.308 337.537 414.774 344.471 408.51 349.719C402.818 354.488 398.773 359.082 391.662 361.799C386.788 363.662 382.072 365.464 376.972 366.553" stroke="#CF3E2F" stroke-linecap="round"/>
<path d="M438.586 197.506C437.464 200.157 443.751 207.601 444.787 209.732C450.786 222.065 450.78 235.963 452.088 249.365C454.135 270.328 448.107 289.007 440.137 308.097C437.265 314.975 434.24 321.907 430.565 328.405C425.368 337.593 415.289 343.595 407.416 350.267C399.563 356.921 392.524 362.423 382.214 364.626" stroke="#CF3E2F" stroke-linecap="round"/>
<path d="M282.959 202.487C281.921 197.63 282.42 212.409 282.37 217.375C282.109 243.517 285.787 268.973 289.743 294.729" stroke="#FDEBA1" stroke-linecap="round"/>
<path d="M297.853 204.151C298.963 225.322 297.973 246.563 299.855 267.71C300.858 278.975 303.269 289.991 305.627 301.027" stroke="#FDEBA1" stroke-linecap="round"/>
<path d="M315.513 192.301C314.173 226.424 314.853 259.498 318.541 293.422" stroke="#FDEBA1" stroke-linecap="round"/>
<path d="M321.566 216.853C324.044 244.64 326.225 272.435 328.08 300.269" stroke="#FDEBA1" stroke-linecap="round"/>
<path d="M335.642 203.346C337.267 235.654 340.749 267.837 344.961 299.893" stroke="#FDEBA1" stroke-linecap="round"/>
<path d="M262.413 242.415C264.38 239.701 267.581 237.49 270.137 235.514C278.097 229.362 286.405 223.654 294.834 218.167C317.235 203.587 340.624 192.239 364.783 180.967" stroke="#FDEBA1" stroke-linecap="round"/>
<path d="M273.378 263.495C272.186 264.091 267.275 266.778 270.877 263.132C279.606 254.297 290.21 246.926 300.246 239.716C320.006 225.52 340.701 210.985 363.997 203.75" stroke="#FDEBA1" stroke-linecap="round"/>
<path d="M290.087 273.656C312.407 250.432 338.231 228.92 365.812 212.246" stroke="#FDEBA1" stroke-linecap="round"/>
<path d="M298.577 283.149C322.686 257.598 348.011 231.667 379.326 215.013" stroke="#FDEBA1" stroke-linecap="round"/>
<path d="M352.979 178.642C354.096 221.344 354.431 263.91 360.845 306.191" stroke="#FDEBA1" stroke-linecap="round"/>
<path d="M349.883 190.612C353.837 224.359 356.812 258.456 359.545 292.335C359.625 293.33 361.21 311.477 359.635 300.527C356.759 280.532 353.943 260.56 351.697 240.48C350.104 226.236 349.123 211.913 347.445 197.684C346.221 187.313 348.316 218.563 349.369 228.952C352.201 256.903 357.805 285.014 359.076 313.031" stroke="#FDEBA1" stroke-linecap="round"/>
<path d="M339.623 187.957C341.446 221.565 344.512 254.788 350.657 287.907C351.527 292.596 354.471 306.597 353.474 301.933C350.901 289.89 348.234 277.862 345.883 265.773C341.947 245.535 338.532 225.185 335.807 204.747C334.441 194.505 334.791 196.731 335.792 204.257C340.185 237.296 349.489 269.964 352.131 303.207C353.73 323.335 341.998 264.093 338.106 244.281C335.312 230.066 331.904 215.331 331.15 200.806C330.47 187.682 335.809 226.674 338.139 239.607C340.861 254.716 343.638 269.818 346.212 284.953C346.903 289.017 347.842 294.44 348.346 298.721C348.487 299.927 349.444 302.809 348.316 302.362C345.416 301.212 342.526 282.419 342.175 280.969C337.662 262.352 333.785 243.648 331.308 224.644C330.103 215.404 326.899 187.705 327.021 197.021C327.343 221.594 334.07 246.734 338.384 270.786C339.372 276.297 342.228 284.353 341.529 290.126C341.105 293.619 337.552 284.196 336.536 280.828C332.256 266.649 329.195 251.972 326.586 237.409C323.7 221.298 319.011 172.422 319.873 188.767C321.567 220.858 328.876 252.562 334.152 284.164C335.14 290.078 336.107 296.276 336.765 302.272C336.991 304.333 337.868 306.555 337.104 308.482C336.442 310.151 335.816 305.118 335.385 303.375C333.156 294.364 331.309 285.242 329.434 276.153C324.761 253.491 320.445 230.763 316.785 207.914C315.867 202.186 315.462 196.355 314.055 190.728C313.438 188.259 314.026 195.824 314.25 198.359C317.511 235.379 324.708 271.935 332.985 308.105" stroke="#FDEBA1" stroke-linecap="round"/>
<path d="M304.25 207.63C306.725 231.624 310.653 255.104 315.448 278.737C316.802 285.409 318.555 292.072 319.644 298.796C320.262 302.614 317.382 291.388 316.537 287.613C310.876 262.337 306.549 236.985 302.286 211.46C301.857 208.892 301.428 201.336 300.654 203.821C299.469 207.626 301.142 211.778 301.585 215.738C303.606 233.806 306.264 251.794 309.606 269.665C311.139 277.864 312.856 286.023 314.274 294.244C314.294 294.357 316.72 306.616 314.22 297.98C305.665 268.429 300.752 237.937 296.073 207.582C295.484 203.759 293.809 192.274 294.339 196.107C295.817 206.79 296.908 217.516 298.151 228.228C301.326 255.614 304.937 282.771 313.015 309.141" stroke="#FDEBA1" stroke-linecap="round"/>
<path d="M286.821 201.662C284.992 220.653 287.299 238.109 291.072 256.843C294.984 276.268 299.894 295.148 306.723 313.716" stroke="#FDEBA1" stroke-linecap="round"/>
<path d="M281.295 217.381C274.509 215.576 275.401 222.393 275.919 227.503C277.228 240.42 280.93 253.434 284.134 265.953C288.018 281.131 292.412 296.159 297.101 311.105C298.19 314.576 301.959 324.736 300.147 321.583C296.967 316.047 295.348 308.374 293.459 302.46C287.595 284.103 282.155 265.61 277.464 246.917C246.062 121.79 298.517 330.026 272.365 225.57C271.587 222.461 271.78 218.588 269.422 216.417C268.095 215.195 268.587 219.978 268.683 221.78C269.182 231.089 271.046 240.4 272.988 249.488C276.262 264.814 280.537 279.86 285.311 294.778C287.979 303.114 291.882 311.884 293.12 320.616C293.952 326.487 288.14 309.846 285.961 304.332C278.979 286.659 272.535 268.838 267.21 250.588C266.847 249.344 258.676 214.684 256.864 214.972C254.137 215.406 261.339 247.542 261.59 248.648C267.826 276.107 278.066 302.259 289.557 327.884" stroke="#FDEBA1" stroke-linecap="round"/>
<path d="M374.151 198.35C372.591 207.435 373.134 217.436 372.963 226.603C372.611 245.513 373.875 264.522 372.76 283.409C370.956 313.951 364.967 222.57 364.712 191.975C364.701 190.615 364.896 186.557 365.055 187.908C366.104 196.833 366.096 205.998 366.571 214.956C367.803 238.231 370.26 261.495 370.635 284.805C370.725 290.381 370.917 296.154 370.573 301.735C370.49 303.072 369.513 299.245 369.309 297.922C366.69 280.86 366.642 263.374 365.792 246.174" stroke="#FDEBA1" stroke-linecap="round"/>
<path d="M369.636 184.776C369.527 184.592 369.596 188.347 369.597 188.374C369.955 196.777 370.378 205.182 370.942 213.574C372.73 240.177 375.052 266.743 376.858 293.347C378.326 314.979 377.59 249.988 377.59 228.307C377.59 214.719 375.851 198.877 378.56 185.382C378.992 183.23 379.562 189.67 379.764 191.856C381.038 205.682 381.867 219.552 382.984 233.392C384.417 251.155 388.024 304.474 387.588 286.657C386.935 259.908 386.2 232.76 389.228 206.122C389.444 204.225 390.402 198.915 391.076 200.701C392.374 204.14 393.042 216.035 393.138 217.492C394.334 235.673 394.219 253.912 394.085 272.122C394.005 283.139 393.97 294.183 392.659 305.138C392.21 308.886 392.477 312.561 389.141 313.877" stroke="#FDEBA1" stroke-linecap="round"/>
<path d="M322.877 328.842C322.72 329.448 322.739 329.17 324.061 328.499C326.319 327.352 330.521 324.982 332.4 323.846C342.169 317.94 351.264 311.084 360.197 303.997C370.179 296.077 379.783 287.68 389.867 279.889C392.341 277.977 399.579 272.425 403.088 270.782C405.749 269.536 405.815 270.906 404.698 272.861C399.616 281.758 390.581 289.562 383.041 296.244C372.836 305.287 361.741 313.351 350.453 320.976C347.166 323.196 341.118 327.117 337.514 329.304C336.223 330.088 332.753 332.672 333.462 331.337C334.481 329.417 336.678 328.406 338.38 327.055C347.223 320.036 356.364 313.371 365.43 306.648C378.616 296.87 391.67 286.569 405.642 277.909C411.715 274.146 414.468 273.967 408.212 280.277C388.919 299.739 365.505 313.776 343.748 330.126C342.445 331.105 339.366 333.427 337.793 334.809C337.031 335.478 339.413 333.585 340.169 332.91C349.266 324.795 357.674 315.965 366.876 307.954C378.995 297.405 391.775 287.689 404.839 278.35C411.2 273.803 402.137 279.114 400.471 279.956" stroke="#FDEBA1" stroke-linecap="round"/>
<path d="M351.226 340.554C359.315 326.732 372.688 317.657 384.465 307.113C393.065 299.414 401.85 291.628 409.617 283.073C411.341 281.174 415.593 275.695 409.292 279.239C386.965 291.794 367.481 308.646 344.303 319.912C342.304 320.883 337.598 323.186 334.989 323.786C332.926 324.261 332.652 323.827 333.761 322.029C338.268 314.724 346.792 308.646 353.155 303.168C364.91 293.046 377.196 283.589 389.429 274.059C395.771 269.118 415.194 254.964 408.173 258.882C400.733 263.033 394.016 269.28 386.959 274.049C373.613 283.066 359.788 291.37 345.85 299.434C337.866 304.053 329.312 309.971 320.573 313.225C314.51 315.483 330.522 304.944 335.699 301.064C356.679 285.34 377.966 268.959 401.11 256.487C418.27 247.239 366.473 274.393 349.433 283.861C337.236 290.638 325.004 297.589 313.36 305.298C312.684 305.746 310.744 307.213 311.435 306.787C312.68 306.017 317.569 302.602 317.935 302.347C347.058 282.007 375.683 261.11 405.637 241.968C410.069 239.136 418.004 234.136 407.427 240.688C393.591 249.261 379.767 257.851 365.884 266.346C352.1 274.781 338.267 283.162 324.947 292.323C320.007 295.72 305.46 305.411 311.295 304.034C320.333 301.901 329.926 293.087 337.196 287.911C353.688 276.169 369.888 264.016 386.267 252.12C390.926 248.736 405.063 238.896 400.004 241.646C386.368 249.058 373.293 257.588 359.828 265.307C337.139 278.313 314.149 292.181 289.519 301.238" stroke="#FDEBA1" stroke-linecap="round"/>
<path d="M271.377 288.153C290.564 272.884 310.175 258.319 330.431 244.485C344.782 234.684 359.35 225.233 374.195 216.199C374.573 215.969 381.597 211.772 383.323 210.614C384.413 209.883 380.944 211.729 379.791 212.356C345.472 231.018 310.254 248.153 276.357 267.57C270.062 271.176 264.786 274.315 258.802 278.231C257.132 279.323 252.163 282.322 254.126 281.967C257.492 281.357 260.407 279.24 263.433 277.645C271.061 273.624 275.318 271.058 282.993 266.286C311.363 248.648 339.913 230.717 367.406 211.726C374.982 206.493 351.33 220.708 343.26 225.142C322.413 236.593 301.444 247.823 280.374 258.859C274.245 262.07 268.127 265.305 261.961 268.447C260.106 269.392 255.005 272.557 256.192 270.846C258.34 267.749 261.911 265.933 264.876 263.606C269.824 259.722 278.478 253.131 283.316 249.525C303.686 234.343 327.075 221.073 345.406 203.683" stroke="#FDEBA1" stroke-linecap="round"/>
<path d="M249.948 237.001C263.575 220.109 277.914 205.3 295.445 192.46C302.867 187.024 310.497 181.823 318.492 177.261C321.051 175.8 328.591 171.642 326.649 173.858C323.263 177.722 317.391 180.909 313.336 183.792C304.648 189.968 295.931 196.104 287.084 202.054C274.678 210.398 237.83 235.882 249.51 226.549C274.533 206.557 354.025 152.458 327.736 170.754C306.104 185.808 284.279 200.525 262.971 216.045C258.569 219.252 251.892 225.788 246.313 227.547C245.206 227.896 250.97 220.914 251.282 220.562" stroke="#FDEBA1" stroke-linecap="round"/>
<path d="M286.392 180.753C291.405 177.545 299.482 176.7 304.931 175.536C310.495 174.347 321.662 172.116 327.595 171.143C328.958 170.919 330.339 170.514 331.711 170.667C334.137 170.938 327.101 172.285 324.744 172.919C309.501 177.017 294.006 179.256 278.582 182.422C277.407 182.663 276.236 182.923 275.063 183.174C274.691 183.253 275.807 183.015 276.179 182.935C284.788 181.096 293.381 179.141 302.031 177.502C312.686 175.483 323.326 174.342 334.176 174.224C340.055 174.16 357.223 173.3 351.767 175.491C347.077 177.375 340.732 177.01 335.817 177.283C322.635 178.017 309.594 179.234 296.518 181.103C288.988 182.179 281.501 183.414 274.063 185.003C273.291 185.168 270.973 185.663 271.746 185.498C275.279 184.743 278.827 184.051 282.382 183.405C306.595 179.002 330.781 175.907 355.311 174.016C358.433 173.775 367.758 172.972 364.696 173.626C357.53 175.157 349.61 175.027 342.352 175.528C320.482 177.038 296.879 178.26 275.828 185.074C274.942 185.361 270.186 187.08 274.66 186.536C287.824 184.933 300.898 182.594 314.018 180.684C325.61 178.997 337.235 177.851 348.892 176.734C353.933 176.25 368.885 174.598 364.075 176.182C357.834 178.238 350.684 178.995 344.234 179.927C327.629 182.328 310.882 183.561 294.351 186.502C287.806 187.666 280.987 188.769 274.611 190.719C271.018 191.818 282.154 190.449 285.838 189.711C311.192 184.634 337.283 176.978 363.199 175.651C378.188 174.884 334.169 183.601 319.308 185.702C306.186 187.556 293 188.901 279.831 190.367C275.227 190.879 261.529 193.236 266.078 192.363C290.035 187.764 314.157 184.139 338.383 181.312C345.76 180.451 353.135 179.548 360.54 178.957C364.017 178.679 353.556 178.691 350.074 178.904C324.15 180.492 298.278 184.395 272.795 189.357C272.407 189.433 267.978 190.289 266.787 190.641C266.324 190.777 267.754 190.747 268.233 190.691C279.785 189.319 291.194 186.155 302.634 184.104C318.484 181.262 334.423 178.834 350.467 177.384C351.06 177.331 371.295 176.115 370.875 177.556C370.176 179.958 357.715 181.249 356.287 181.525C340.018 184.671 323.7 187.278 307.264 189.396C295.049 190.971 258.897 196.57 271.187 197.374C279.913 197.944 289.31 196.288 297.916 195.208C316.947 192.819 335.903 189.223 355.064 187.979C375.203 186.671 315.352 195.21 295.465 198.648C289.019 199.762 282.59 200.95 276.192 202.317C269.983 203.643 288.62 199.715 294.852 198.51C306.687 196.221 318.527 193.934 330.378 191.728C332.488 191.335 356.506 185.419 357.635 187.833C359.424 191.661 314.202 199.175 310.617 199.629C305.219 200.312 299.714 200.658 294.36 201.666C290.098 202.469 302.966 200.532 307.218 199.682C318.736 197.378 330.181 194.724 341.695 192.406C341.864 192.372 358.771 189.331 358.623 190.359C358.346 192.294 347.863 195.004 347.189 195.225C336.644 198.691 325.856 201.316 315.107 204.054C312.089 204.823 310.202 205.013 313.867 202.659C321.096 198.014 329.311 194.665 337.029 190.935" stroke="#FDEBA1" stroke-linecap="round"/>
<path d="M237.108 214.706C234.941 213.621 264.04 180.315 264.995 179.312C275.005 168.798 285.837 158.976 297.658 150.526C306.024 144.546 296.348 152.397 294.408 154.003" stroke="#F7D113" stroke-linecap="round"/>
<path d="M239.815 208.474C239.973 205.65 243.704 201.565 245.257 199.503C251.391 191.359 259.387 184.574 267.208 178.121C270.778 175.177 274.519 172.206 278.293 169.516C279.74 168.485 285.292 163.847 287.757 164.039C288.914 164.129 286.203 165.77 285.328 166.532C280.546 170.701 275.772 174.863 271.112 179.172C265.1 184.731 259.738 189.779 253.994 195.662C251.639 198.075 249.275 200.487 247.094 203.059C246.338 203.951 244.739 204.951 245.214 206.019C245.61 206.911 247.006 205.205 247.786 204.617C249.813 203.088 251.695 201.374 253.6 199.695C261.181 193.011 268.457 185.986 276.028 179.288C284.043 172.198 292.394 163.803 301.519 158.092C303.23 157.021 298.545 160.825 297.054 162.187C290.343 168.315 283.661 174.481 277.167 180.84C259.789 197.854 242.874 215.894 228.83 235.814C228.117 236.825 226.887 240.173 227.844 239.39C229.333 238.17 230.177 235.606 231.276 234.035C241.464 219.478 253.646 205.777 265.722 192.798C273.43 184.514 281.686 176.777 290.01 169.122C293.653 165.771 290.955 168.297 289.654 169.557" stroke="#F7D113" stroke-linecap="round"/>
<path d="M243.386 232.749C256.952 213.88 270.885 195.828 288.035 180.043C289.563 178.638 291.125 177.269 292.724 175.945C295.508 173.64 295.582 173.849 293.196 176.473C286.558 183.771 279.461 190.679 272.621 197.785C262.785 208.005 252.812 218.253 243.909 229.317C235.902 239.267 261.041 210.338 270.277 201.517C277.783 194.349 285.604 187.159 294.109 181.169C297.103 179.06 301.007 177.13 297.376 182.176C288.565 194.419 276.764 204.814 266.689 216.014C264.618 218.316 258.7 225.434 260.383 222.835C262.574 219.455 266.192 216.009 268.811 213.137C286.449 193.801 306.054 177.024 326.565 160.863" stroke="#F7D113" stroke-linecap="round"/>
<path d="M256.208 194.471C263.923 220.356 273.658 246.196 279.453 272.607C279.917 274.723 280.305 276.857 280.595 279.004C280.812 280.608 281.094 283.516 279.908 280.407C278.531 276.798 277.936 272.913 277.015 269.179" stroke="#F7D113" stroke-linecap="round"/>
<path d="M265.2 194.973C269.496 217.554 279.465 238.734 287.055 260.303C289.611 267.568 291.03 274.658 291.13 282.317" stroke="#F7D113" stroke-linecap="round"/>
<path d="M269.841 182.674C277.753 210.314 285.766 238.275 296.326 265.053" stroke="#F7D113" stroke-linecap="round"/>
<path d="M279.434 193.548C285.742 203.902 289.499 216.563 294.305 227.659C299.91 240.603 306.133 253.093 312.6 265.615" stroke="#F7D113" stroke-linecap="round"/>
<path d="M251.156 246.435C271.931 220.693 297.785 199.552 321.977 177.189" stroke="#F7D113" stroke-linecap="round"/>
<path d="M253.46 268.558C274.497 249.404 295.295 228.102 320.134 213.929" stroke="#F7D113" stroke-linecap="round"/>
<path d="M276.527 255.553C278.41 255.411 277.643 255.632 280.083 253.716C285.482 249.478 290.423 244.675 295.762 240.36C302.286 235.087 309.203 230.542 316.265 226.063" stroke="#F7D113" stroke-linecap="round"/>
<path d="M275.246 276.019L333.476 227.232" stroke="#F7D113" stroke-linecap="round"/>
<path d="M275.773 316.29C295.048 297.767 313.9 278.339 336.433 263.754" stroke="#F7D113" stroke-linecap="round"/>
<path d="M280.625 320.1C297.079 304.691 313.133 288.226 331.626 275.281" stroke="#F7D113" stroke-linecap="round"/>
<path d="M284.593 327.329C300.08 312.186 315.718 297.297 331.567 282.563" stroke="#F7D113" stroke-linecap="round"/>
<path d="M293.25 243.095C302.447 265.782 311.188 288.799 321.739 310.912C324.239 316.152 327.421 323.023 332.376 326.678C335.206 328.764 333.864 324.75 333.497 323.522C331.869 318.078 329.432 312.941 327.248 307.716" stroke="#F7D113" stroke-linecap="round"/>
<path d="M299.475 257.111C315.012 274.103 329.65 291.913 343.735 310.116C346.675 313.915 355.61 322.724 351.675 327.535" stroke="#F7D113" stroke-linecap="round"/>
<path d="M270.011 266.637C264.582 283.945 279.805 301.972 288.29 315.231C291.887 320.851 295.496 326.452 299.54 331.764C304.291 338.003 297.504 325.34 297.237 324.762C292.842 315.261 288.517 305.729 284.057 296.258C282.522 292.998 279.762 287.042 277.868 283.67C277.333 282.718 275.454 280.355 275.463 281.446C275.535 289.703 282.191 299.42 286.472 305.883C292.738 315.34 300.179 322.891 308.644 330.267" stroke="#F7D113" stroke-linecap="round"/>
<path d="M348.466 342.759C359.996 329.068 377.584 307.922 390.017 294.036C392.773 290.959 401.53 281.082 406.706 277.637C410.642 275.017 407.436 281.389 407.31 281.726" stroke="#F7D113" stroke-linecap="round"/>
<path d="M367.341 329.034C382.774 314.097 399.713 299.743 417.457 287.635" stroke="#F7D113" stroke-linecap="round"/>
<path d="M384.05 339.195C395.669 325.881 407.188 312.462 419.013 299.328C426.444 291.075 421.012 296.711 421.148 297.346" stroke="#F7D113" stroke-linecap="round"/>
<path d="M421.789 239.864C418.134 249.081 413.499 256.352 406.537 263.404C405.841 264.109 403.588 265.839 403.992 264.935C406.255 259.876 410.632 255.17 414.05 250.895C417.18 246.981 420.439 243.166 423.867 239.509C424.248 239.103 429.286 234.133 424.186 239.531C411.111 253.368 396.872 266.098 383.425 279.56" stroke="#F7D113" stroke-linecap="round"/>
<path d="M418.489 224.415C406.879 232.877 395.256 241.888 382.714 248.93C376.961 252.161 377.501 250.513 380.876 246.63C387.607 238.887 395.758 232.088 403.544 225.454C407.7 221.913 417.797 213.991 406.5 223.117C392.225 234.65 378.841 246.784 365.343 259.193" stroke="#F7D113" stroke-linecap="round"/>
<path d="M232.955 240.631C247.199 266.775 261.375 293.278 271.964 321.143" stroke="#F7D113" stroke-linecap="round"/>
<path d="M227.818 250.613C238.138 273.066 248.044 295.639 258.008 318.201C264.782 333.539 248.836 285.925 243.29 270.103C242.745 268.547 239.763 260.137 239.289 257.675C239.204 257.238 239.122 256.228 239.547 256.364C240.383 256.631 240.803 257.604 241.311 258.32C249.096 269.3 255.225 281.731 261.867 293.415C265.42 299.667 269.38 305.903 272.272 312.506C272.384 312.762 272.767 313.455 272.532 313.303C272.21 313.094 272.132 312.647 271.96 312.304C270.135 308.682 268.575 304.915 266.9 301.225" stroke="#F7D113" stroke-linecap="round"/>
<path d="M243.828 231.039C257.837 257.606 272.202 284.011 285.976 310.7C287.864 314.358 289.276 318.139 290.72 321.981" stroke="#F7D113" stroke-linecap="round"/>
<path d="M250.728 225.527L311.786 333.634" stroke="#F7D113" stroke-linecap="round"/>
<path d="M277.38 214.179C289.574 250.72 311.772 282.798 325.532 318.582" stroke="#F7D113" stroke-linecap="round"/>
<path d="M269.048 216.766C276.238 233.466 283.935 249.964 291.516 266.485C300.713 286.523 304.323 294.32 312.881 312.715C313.943 314.998 317.136 321.756 315.598 319.762C305.471 306.642 296.736 291.997 288.043 277.951C275.503 257.688 277.388 260.151 266.483 241.724C265.129 239.437 261.11 232.708 261.786 235.279C267.9 258.565 282.181 280.429 293.214 301.526C297.093 308.942 305.072 319.497 304.121 328.003" stroke="#F7D113" stroke-linecap="round"/>
<path d="M260.24 277.609C282.086 305.37 305.075 332.231 327.769 359.296" stroke="#F7D113" stroke-linecap="round"/>
<path d="M279.972 305.701L292.317 325.678" stroke="#F7D113" stroke-linecap="round"/>
<path d="M416.926 164.173L419.078 162.905" stroke="#F7D113" stroke-linecap="round"/>
<path d="M414.938 166.212C416.692 165.369 418.286 164.69 420.18 164.285" stroke="#F7D113" stroke-linecap="round"/>
<path d="M415.103 166.985C417.691 164.896 420.163 162.763 422.61 160.535" stroke="#F7D113" stroke-linecap="round"/>
<path d="M423.382 160.37C421.629 163.768 418.239 168.165 417.803 172.062" stroke="#F7D113" stroke-linecap="round"/>
<path d="M417.526 174.544L426.689 164.51" stroke="#F7D113" stroke-linecap="round"/>
<path d="M389.02 150.75L400.83 141.765" stroke="#F7D113" stroke-linecap="round"/>
<path d="M279.058 176.667C283.264 208.397 285.903 240.267 290.529 271.946" stroke="#F7D113" stroke-linecap="round"/>
<path d="M399.039 126.782C398.819 126.639 442.571 74.5356 445.749 71.1231C447.158 69.6104 466.888 48.9559 466.334 48.5972" stroke="#F7D113" stroke-width="3" stroke-linecap="round"/>
<path d="M461.954 175.532C498.528 166.487 535.066 157.326 571.586 148.071" stroke="#F7D113" stroke-width="3" stroke-linecap="round"/>
<path d="M370.525 386.487C379.675 439.754 387.875 493.1 399.721 545.825" stroke="#F7D113" stroke-width="3" stroke-linecap="round"/>
<path d="M234.287 440.633L278.065 388.472" stroke="#F7D113" stroke-width="3" stroke-linecap="round"/>
<path d="M218.556 363.225C172.973 383.761 127.981 405.674 82.7535 426.97" stroke="#F7D113" stroke-width="3" stroke-linecap="round"/>
<path d="M195.544 285.757C174.041 287.273 152.505 288.412 130.997 289.856" stroke="#F7D113" stroke-width="3" stroke-linecap="round"/>
<path d="M207.417 174.991C176.529 159.446 146.132 142.887 115.539 126.775" stroke="#F7D113" stroke-width="3" stroke-linecap="round"/>
<path d="M273.866 126.871L249.942 98.0599" stroke="#F7D113" stroke-width="3" stroke-linecap="round"/>
<path d="M228.777 67.0436L191.451 32.211" stroke="#F7D113" stroke-width="3" stroke-linecap="round"/>
<path d="M477.691 241.631C526.732 227.938 575.866 214.914 625.119 202.056" stroke="#F7D113" stroke-width="3" stroke-linecap="round"/>
<path d="M455.864 302.024L489.236 307.01" stroke="#F7D113" stroke-width="3" stroke-linecap="round"/>
<path d="M438.288 355.856C447.511 361.065 455.783 367.699 464.868 373.151C482.098 383.493 500.614 391.568 518.804 400.038" stroke="#F7D113" stroke-width="3" stroke-linecap="round"/>
<path d="M437.092 146.113C465.334 130.766 495.444 117.976 525.657 106.999" stroke="#F7D113" stroke-width="5" stroke-linecap="round"/>
<path d="M347.247 111.194C349.487 89.6653 352.104 68.149 353.949 46.5826C355.467 28.8478 355.063 11.9728 353.773 -5.69974" stroke="#F7D113" stroke-width="5" stroke-linecap="round"/>
<path d="M308.791 120.217C309.415 118.644 308.836 116.832 308.828 115.139C308.783 105.779 308.927 96.4224 308.976 87.0626" stroke="#CF3E2F" stroke-width="3" stroke-linecap="round"/>
<path d="M398.101 126.175C408.097 110.747 419.854 96.7663 431.614 82.6688" stroke="#CF3E2F" stroke-width="3" stroke-linecap="round"/>
<path d="M347.63 116.766C348.471 110.456 349.678 104.143 350.774 97.8761C353.02 85.0328 355.628 72.2643 357.671 59.3835C361.415 35.7867 363.432 12.1105 366.244 -11.5949" stroke="#CF3E2F" stroke-width="3" stroke-linecap="round" stroke-dasharray="6 6"/>
<path d="M333.673 387.899C333.836 407.064 333.315 426.22 333.031 445.382" stroke="#CF3E2F" stroke-width="3" stroke-linecap="round" stroke-dasharray="6 6"/>
<path d="M200.273 220.94C187.241 217.243 174.558 211.92 161.83 207.346" stroke="#CF3E2F" stroke-width="3" stroke-linecap="round"/>
<path d="M407.054 372.221L483.54 510.956" stroke="#CF3E2F" stroke-width="3" stroke-linecap="round"/>
<path d="M473.914 284.437C504.022 291.702 535.079 295.78 565.535 301.209" stroke="#CF3E2F" stroke-width="3" stroke-linecap="round"/>
<path d="M67.0048 288.989C107.336 285.015 147.641 280.556 187.992 276.871" stroke="#FFE66A" stroke-width="3" stroke-linecap="round" stroke-dasharray="6 6"/>
<path d="M452.85 178.285C481.624 170.559 510.389 162.799 539.144 155.002" stroke="#FFE66A" stroke-width="3" stroke-linecap="round" stroke-dasharray="6 6"/>
<path d="M424.455 151.236L425.228 151.071" stroke="#FFE66A" stroke-width="3" stroke-linecap="round" stroke-dasharray="6 6"/>
<path d="M411.081 372.169C411.086 371.997 411.387 367.958 410.627 368.362C410.241 368.567 410.181 368.997 410.176 369.401C410.135 372.49 413.262 378.03 414.233 380.2C428.271 411.587 444.883 440.323 463.32 469.238" stroke="#FFE66A" stroke-width="3" stroke-linecap="round" stroke-dasharray="6 6"/>
<path d="M83.8101 413.013C129.719 388.139 175.995 364.098 222.597 340.554" stroke="#CF3E2F" stroke-width="3" stroke-linecap="round" stroke-dasharray="6 6"/>
<path d="M453.338 191.911C481.307 180.481 509.306 169.131 537.322 157.814" stroke="#CF3E2F" stroke-width="3" stroke-linecap="round" stroke-dasharray="6 6"/>
<path d="M215.524 178.913C193.804 164.839 172.983 149.342 151.889 134.355" stroke="#CF3E2F" stroke-width="3" stroke-linecap="round" stroke-dasharray="6 6"/>
<path d="M265.977 127.749C290.554 157.712 219.21 65.7482 199.397 32.4426C194.609 24.3936 190.1 16.1672 185.676 7.91287C184.674 6.04302 183.023 3.68556 182.563 1.53315C182.147 -0.41522 184.221 1.15136 184.849 1.31388" stroke="#FFE66A" stroke-width="3" stroke-linecap="round" stroke-dasharray="6 6"/>
<path d="M369.304 127.481C379.057 112.082 387.293 95.5905 396.254 79.7234" stroke="#FFE66A" stroke-width="3" stroke-linecap="round" stroke-dasharray="6 6"/>
<path d="M281.432 385.33C269.663 402.999 257.788 420.587 245.873 438.157" stroke="#FFE66A" stroke-width="3" stroke-linecap="round" stroke-dasharray="6 6"/>
<path d="M478.576 238.211C517.477 224.708 556.101 210.375 594.836 196.411" stroke="#FFE66A" stroke-width="3" stroke-linecap="round" stroke-dasharray="6 6"/>
<path d="M307.516 129.374C309.159 126.521 308.987 122.656 309.177 119.507C310.618 95.7062 310.326 71.6765 311.097 47.8407" stroke="#FFE66A" stroke-linecap="round" stroke-dasharray="6 6"/>
</svg>
