<svg width="498" height="129" viewBox="0 0 498 129" fill="none" xmlns="http://www.w3.org/2000/svg">
<g filter="url(#filter0_d_35_77)">
<path d="M493 113H5L193.027 106.146C193.751 92.4365 205.852 66.977 248.457 74.8107C243.022 69.2618 235.414 55.8139 248.457 46.4135C254.978 24.8708 282.584 -12.9269 340.84 8.22416C399.095 29.3752 400.617 67.3034 394.096 83.6236C407.863 82.318 438.222 84.9945 449.526 106.146L493 113Z" fill="#F5FDFF"/>
<path d="M493 113H5L193.027 106.146C193.751 92.4365 205.852 66.977 248.457 74.8107C243.022 69.2618 235.414 55.8139 248.457 46.4135C254.978 24.8708 282.584 -12.9269 340.84 8.22416C399.095 29.3752 400.617 67.3034 394.096 83.6236C407.863 82.318 438.222 84.9945 449.526 106.146L493 113Z" stroke="#E3DCDC" stroke-width="3"/>
</g>
<path d="M256.065 59.7736C263.132 67.0196 267.845 75.1105 273.454 83.2747" stroke="#BEEBFD" stroke-width="3" stroke-linecap="round"/>
<path d="M258.238 53.8983C261.556 64.8571 268.764 74.6686 273.454 85.2331" stroke="#BEEBFD" stroke-width="3" stroke-linecap="round"/>
<path d="M264.759 51.9399C271.171 63.1536 278.632 73.697 284.323 85.2331" stroke="#BEEBFD" stroke-width="3" stroke-linecap="round"/>
<path d="M279.975 65.6489L288.67 85.2331" stroke="#BEEBFD" stroke-width="3" stroke-linecap="round"/>
<path d="M273.454 36.2725C283.795 52.5064 293.672 68.0272 301.713 85.2331" stroke="#BEEBFD" stroke-width="3" stroke-linecap="round"/>
<path d="M277.802 30.3972L290.844 57.8152" stroke="#BEEBFD" stroke-width="3" stroke-linecap="round"/>
<path d="M266.933 79.3579C274.975 73.4435 287.834 59.7736 299.539 59.7736" stroke="#BEEBFD" stroke-width="3" stroke-linecap="round"/>
<path d="M258.238 73.4826C267.404 65.5839 276.163 60.1049 286.497 53.8983" stroke="#BEEBFD" stroke-width="3" stroke-linecap="round"/>
<path d="M212.59 89.15C212.929 93.1208 213.975 96.9902 214.764 100.901" stroke="#BEEBFD" stroke-width="3" stroke-linecap="round"/>
<path d="M203.895 89.15C204.078 94.7602 204.555 98.4287 208.243 102.859" stroke="#BEEBFD" stroke-width="3" stroke-linecap="round"/>
<path d="M201.722 91.1084C202.377 94.6507 204.469 97.6573 206.069 100.901" stroke="#BEEBFD" stroke-width="3" stroke-linecap="round"/>
<path d="M221.285 91.1084L225.633 98.9421" stroke="#BEEBFD" stroke-width="3" stroke-linecap="round"/>
<path d="M229.98 89.15C231.585 94.2115 235.664 98.4504 238.675 102.859" stroke="#BEEBFD" stroke-width="3" stroke-linecap="round"/>
<path d="M245.196 93.0668C253.724 95.6279 261.382 100.84 269.107 104.817" stroke="#BEEBFD" stroke-width="3" stroke-linecap="round"/>
<path d="M303.886 57.8152C310.097 66.3731 318.233 73.6059 325.624 81.3163" stroke="#BEEBFD" stroke-width="3" stroke-linecap="round"/>
<path d="M310.408 49.9814C316.704 63.5952 326.671 77.3518 336.492 89.15" stroke="#BEEBFD" stroke-width="3" stroke-linecap="round"/>
<path d="M327.797 65.6489L345.187 91.1084" stroke="#BEEBFD" stroke-width="3" stroke-linecap="round"/>
<path d="M345.187 67.6073L362.577 93.0669" stroke="#BEEBFD" stroke-width="3" stroke-linecap="round"/>
<path d="M356.056 61.7321C363.619 72.0569 370.741 82.4774 377.793 93.0669" stroke="#BEEBFD" stroke-width="3" stroke-linecap="round"/>
<path d="M288.67 18.6466L260.412 42.1477" stroke="#E5F8FE" stroke-width="3" stroke-linecap="round"/>
<path d="M288.67 16.6882C279.592 26.3163 270.945 36.0231 262.586 46.0646" stroke="#E5F8FE" stroke-width="3" stroke-linecap="round"/>
<path d="M297.365 24.5219L269.107 49.9815" stroke="#E5F8FE" stroke-width="3" stroke-linecap="round"/>
<path d="M303.886 26.4803C301.728 28.5858 278.029 54.103 275.628 51.9399" stroke="#E5F8FE" stroke-width="3" stroke-linecap="round"/>
<path d="M310.408 30.3972C300.834 38.3654 284.559 47.7739 278.164 58.5768C275.928 62.3536 281.295 58.3925 282.149 57.8152" stroke="#E5F8FE" stroke-width="3" stroke-linecap="round"/>
<path d="M314.755 38.2309C308.93 44.0704 303.095 49.9571 297.365 55.8567" stroke="#E5F8FE" stroke-width="3" stroke-linecap="round"/>
<path d="M327.797 40.1893C319.562 45.5852 307.239 55.7906 301.713 59.7736" stroke="#E5F8FE" stroke-width="3" stroke-linecap="round"/>
<path d="M334.318 44.1062C333.168 45.1612 295.079 81.4177 314.755 63.6905" stroke="#E5F8FE" stroke-width="3" stroke-linecap="round"/>
<path d="M347.361 46.0646C341.7 54.9893 331.74 63.9475 325.624 71.5242" stroke="#E5F8FE" stroke-width="3" stroke-linecap="round"/>
<path d="M356.056 51.9399C347.008 57.3742 339.305 65.8152 332.386 73.265C324.232 82.0454 352.79 59.706 352.916 61.5144C353.601 71.3859 321.489 87.4905 331.903 84.3627C345.085 80.4039 357.094 67.0101 367.649 59.2296C375.797 53.223 356.481 75.3522 350.018 82.8395C347.9 85.2923 365.539 69.4356 369.823 66.9545C375.032 63.937 359.146 80.945 357.505 84.0363C352.441 93.576 373.974 71.7829 375.861 69.7833C386.289 58.7295 369.19 79.5329 366.924 83.2747" stroke="#E5F8FE" stroke-width="3" stroke-linecap="round"/>
<path d="M364.751 61.732C346.52 81.807 374.922 52.4498 364.267 60.644C358.502 65.0782 354.411 70.8531 348.327 75.0058C343.126 78.5554 353.854 63.3549 355.09 61.8408C355.795 60.9761 367.557 48.4588 361.973 52.4838C354.677 57.7425 347.686 63.3977 341.081 69.3481C331.299 78.1613 354.439 49.7732 350.742 52.375C347.428 54.7081 326.17 77.0862 330.454 68.6953C331.744 66.1682 339.705 54.3993 336.734 51.7222C333.799 49.0782 323.842 59.296 321.397 60.5352C311.529 65.5361 321.478 44.9405 314.393 43.3445C310.849 42.5464 287.106 45.3601 293.018 48.023" stroke="#E5F8FE" stroke-width="3" stroke-linecap="round"/>
<path d="M234.327 96.9837C240.563 93.8285 273.572 79.2847 250.026 91.1085C244.932 93.667 229.762 100.503 233.603 96.5485C238.545 91.4599 254.401 89.5584 261.137 87.3004C267.74 85.0868 275.494 82.3561 264.518 87.3004C256.813 90.7715 249.349 95.7289 241.332 98.507C237.062 99.9864 245.247 98.6626 246.162 98.507C253.546 97.2517 271.278 85.6936 267.295 91.4349C264.348 95.6835 235.745 102.952 253.166 99.8126C259.195 98.7262 266.158 98.38 272.005 96.8749C277.648 95.4224 260.391 98.7057 254.857 100.465C247.462 102.817 273.673 102.227 276.836 99.3774C282.354 94.4054 260.368 101.058 254.495 105.688C253.175 106.728 301.612 95.6879 283.84 97.419C278.568 97.9324 255.186 105.114 250.026 100.465C245.625 96.4998 268.898 88.9738 249.543 92.0877C247.883 92.3548 239.631 94.6119 238.796 91.9789C237.742 88.6566 241.807 87.6717 236.018 88.7148C216.356 92.2578 237.485 81.5339 243.747 81.5339C244.911 81.5339 237.449 85.793 236.622 86.2124C230.484 89.3229 236.257 88.8242 239.882 88.1708C241.074 87.9561 252.307 85.4508 249.181 85.4508C244.524 85.4508 231.602 90.2381 236.26 90.2381C241.301 90.2381 245.823 86.1036 250.751 86.1036C252.571 86.1036 244.046 90.4462 247.732 90.9997C251.746 91.6024 257.296 89.8365 261.016 91.3261C263.463 92.306 260.165 96.9096 266.933 98.9422" stroke="#E5F8FE" stroke-width="3" stroke-linecap="round"/>
<path d="M386.488 93.0669C403.322 83.887 384.666 91.75 390.111 90.6732C394.464 89.8122 402.911 87.1916 402.911 87.1916C402.911 87.1916 392.138 91.5724 386.729 93.7197C383.451 95.0212 378.225 97.0594 385.28 95.0253C390.473 93.5282 404.834 87.4175 400.979 90.8908C395.983 95.392 388.479 98.4011 382.623 101.989C381.994 102.374 394.063 97.4235 397.236 96.1133C414.666 88.9156 400.149 95.4525 392.284 99.7038C386.098 103.048 413.303 96.1081 412.089 97.2013C400.963 107.225 411.053 100.049 421.026 99.051C425.512 98.6019 424.299 99.2861 422.716 101.662C422.605 101.83 430.834 99.5288 432.136 98.9422" stroke="#E5F8FE" stroke-width="3" stroke-linecap="round"/>
<path d="M386.488 38.2309C390.292 36.1745 397.009 48.7369 397.719 50.8519C400.179 58.1825 396.457 63.3534 393.009 69.5657" stroke="#E5F8FE" stroke-width="3" stroke-linecap="round"/>
<path d="M388.661 32.3556C401.847 48.987 398.285 60.0579 388.661 77.3994" stroke="#E5F8FE" stroke-width="3" stroke-linecap="round"/>
<path d="M382.14 30.3972C400.406 52.2022 389.435 69.609 375.619 91.1085" stroke="#E5F8FE" stroke-width="3" stroke-linecap="round"/>
<path d="M447.352 106.776H460.394" stroke="#E5F8FE" stroke-width="3" stroke-linecap="round"/>
<path d="M445.178 106.776L469.089 98.9421" stroke="#E5F8FE" stroke-width="3" stroke-linecap="round"/>
<path d="M466.915 102.859L473.437 104.817" stroke="#E5F8FE" stroke-width="3" stroke-linecap="round"/>
<path d="M460.394 110.693H490.826" stroke="#E5F8FE" stroke-width="3" stroke-linecap="round"/>
<path d="M453.873 106.776L486.479 108.734" stroke="#E5F8FE" stroke-width="3" stroke-linecap="round"/>
<path d="M462.568 106.776H471.263" stroke="#E5F8FE" stroke-width="3" stroke-linecap="round"/>
<path d="M201.722 95.0253C185.112 99.9464 168.511 104.414 151.726 108.734" stroke="#E5F8FE" stroke-width="3" stroke-linecap="round"/>
<path d="M132.163 104.817C152.591 103.434 172.709 101.175 193.027 98.9421" stroke="#E5F8FE" stroke-width="3" stroke-linecap="round"/>
<defs>
<filter id="filter0_d_35_77" x="0.945343" y="0.500244" width="496.288" height="128" filterUnits="userSpaceOnUse" color-interpolation-filters="sRGB">
<feFlood flood-opacity="0" result="BackgroundImageFix"/>
<feColorMatrix in="SourceAlpha" type="matrix" values="0 0 0 0 0 0 0 0 0 0 0 0 0 0 0 0 0 0 127 0" result="hardAlpha"/>
<feOffset dy="10"/>
<feGaussianBlur stdDeviation="2"/>
<feComposite in2="hardAlpha" operator="out"/>
<feColorMatrix type="matrix" values="0 0 0 0 0 0 0 0 0 0 0 0 0 0 0 0 0 0 0.25 0"/>
<feBlend mode="normal" in2="BackgroundImageFix" result="effect1_dropShadow_35_77"/>
<feBlend mode="normal" in="SourceGraphic" in2="effect1_dropShadow_35_77" result="shape"/>
</filter>
</defs>
</svg>
