<svg version="1.2" xmlns="http://www.w3.org/2000/svg" viewBox="0 0 1863 951" width="1863" height="951"><style>.a{fill:none;stroke:#0f8d8d;stroke-width:2}.b{fill:none;stroke:#e5f8fe;stroke-linecap:round;stroke-width:3}.c{fill:none;stroke:#7dcceb;stroke-linecap:round;stroke-width:1}.d{fill:none;stroke:#7dcceb;stroke-linecap:round;stroke-width:3}.e{fill:none;stroke:#abdcf2;stroke-linecap:round;stroke-width:3}.f{fill:none;stroke:#cceaf8;stroke-linecap:round;stroke-width:3}.g{fill:none;stroke:#b8e2f4;stroke-linecap:round;stroke-width:3}</style><path fill-rule="evenodd" class="a" d="m42.6 34.9h1754.4c9 0 16.3 6.9 16.3 15.5v789.2c0 8.6-7.3 15.5-16.3 15.5h-1754.4c-8.9 0-16.2-6.9-16.2-15.5v-789.2c0-8.6 7.3-15.5 16.2-15.5z"/><path fill-rule="evenodd" class="b" d="m1362.5 58.1c20.5-19.1 41.8-37.6 62.9-56.2"/><path fill-rule="evenodd" class="b" d="m1378.7 54.2c7.3-6.6 14.9-12.9 22.4-19.3"/><path fill-rule="evenodd" class="b" d="m1409.2 42.6c9.7-4.6 18-12.9 26.4-19.4"/><path fill-rule="evenodd" class="c" d="m1760.5 918.1c10.3-15.8 21.5-31.1 32.4-46.5"/><path fill-rule="evenodd" class="c" d="m1758.4 916.1c31.7-48.2 66.7-96.6 103.6-141.4"/><path fill-rule="evenodd" class="c" d="m1732 929.7c23.1-37.3 50.2-72.2 76.3-107.6 17.8-24.2 34.1-49.7 53.7-72.5"/><path fill-rule="evenodd" class="c" d="m1636.6 879.3c8.8-9.8 18.7-18.2 28.4-27.1"/><path fill-rule="evenodd" class="c" d="m745.2 94.9c14.8-11.6 28.6-24.4 42.6-36.8"/><path fill-rule="evenodd" class="c" d="m726.9 116.2c21.8-26.3 45.2-50.9 69.1-75.5"/><path fill-rule="evenodd" class="c" d="m702.6 106.5c25.1-28.6 55.6-51.3 85.2-75.5"/><path fill-rule="evenodd" class="c" d="m702.6 79.4c29.7-1.6 59.5-1.9 89.3-1.9"/><path fill-rule="evenodd" class="c" d="m678.2 96.8c30.6-0.3 60.9-3.1 91.4-5.8"/><path fill-rule="evenodd" class="c" d="m692.4 91c27.3-4.3 54.3-11.5 81.2-17.4"/><path fill-rule="evenodd" class="c" d="m1835.6 608.2c0 14-10.6 29.4-16.8 41.4-16 30.9-34.2 60.5-52.2 90.3"/><path fill-rule="evenodd" class="c" d="m1847.8 614c-19.1 34.1-38.3 68-59.1 101.1-6.7 10.7-12.3 22.6-20.1 32.5"/><path fill-rule="evenodd" class="c" d="m1784.8 681.8c25.5-7.2 46.5-25.4 67-40.7"/><path fill-rule="evenodd" class="c" d="m1770.6 707c27.3-21.8 55.8-42.3 83.3-64"/><path fill-rule="evenodd" class="d" d="m1809.2 586.9c2.4-0.5 2.7-2.2 4.1-3.9"/><path fill-rule="evenodd" class="d" d="m1801.1 606.2c9.2-10.5 18.9-20.7 28.4-31"/><path fill-rule="evenodd" class="d" d="m2 949.1l36.6-27.2"/><path fill-rule="evenodd" class="d" d="m14.2 945.2c49-35.3 101.9-64.8 154.3-94.9"/><path fill-rule="evenodd" class="d" d="m109.6 935.5c13.3-16.4 31.7-28.6 48.8-41.1 32.5-23.8 66.9-44.6 101.5-65.4"/><path fill-rule="evenodd" class="d" d="m52.8 918.1c47.1-21.9 93.5-45 140.1-67.8"/><path fill-rule="evenodd" class="d" d="m97.5 920c65-40.6 132.3-78 199-116.2"/><path fill-rule="evenodd" class="b" d="m355.3 56.2c18-12.1 34.1-27.1 50.8-40.7"/><path fill-rule="evenodd" class="b" d="m4.1 226.6c52.6-11 105.5-20.7 158.3-31"/><path fill-rule="evenodd" class="b" d="m4.1 277c14.8-6.7 29.7-13 44.6-19.4"/><path fill-rule="evenodd" class="e" d="m1076.2 32.9c-10.4 16-28.3 28.3-42.7 40.7"/><path fill-rule="evenodd" class="e" d="m1094.4 31c-24.6 28.2-58.5 51.2-87.3 75.5"/><path fill-rule="evenodd" class="e" d="m1086.3 44.5c-27.1 29-57.3 55.1-85.3 83.3"/><path fill-rule="evenodd" class="e" d="m1001 127.8c32.1-32.3 72.5-59.3 111.7-83.3"/><path fill-rule="evenodd" class="f" d="m542.1 102.7c21.1-15 43.3-28.5 65-42.7"/><path fill-rule="evenodd" class="g" d="m1453.9 224.7c29.5-15 57-31.5 85.2-48.4"/><path fill-rule="evenodd" class="g" d="m1468.1 228.5c17.3-9 32.8-21.9 48.7-32.9"/><path fill-rule="evenodd" class="g" d="m1508.7 178.2c-11.1 25.1-21.9 50.2-32.5 75.5"/><path fill-rule="evenodd" class="g" d="m1524.9 185.9l-26.4 50.4"/><path fill-rule="evenodd" class="g" d="m1415.3 842.5l103.5-61.9"/><path fill-rule="evenodd" class="g" d="m1488.4 809.6l134-89.1"/><path fill-rule="evenodd" class="g" d="m1464 842.5l105.6-67.8"/><path fill-rule="evenodd" class="g" d="m777.7 927.8l109.6-46.5"/><path fill-rule="evenodd" class="g" d="m810.2 933.6c47.4-23.3 96-44.1 144.1-65.9"/></svg>