<svg width="1863" height="951" viewBox="0 0 1863 951" fill="none" xmlns="http://www.w3.org/2000/svg">
<rect x="65" y="31" width="1760" height="847" rx="16" stroke="#DDDE97" stroke-width="2"/>
<path d="M1273 49C1289.48 38.0152 1303.95 23.8224 1319 11" stroke="#3973C8" stroke-width="3" stroke-linecap="round"/>
<path d="M1295 45C1296.92 39.6293 1301.6 35.418 1305 31" stroke="#3973C8" stroke-width="3" stroke-linecap="round"/>
<path d="M1213 911C1228.9 897.945 1246 886.562 1263 875" stroke="#3973C8" stroke-width="3" stroke-linecap="round"/>
<path d="M1245 901C1276.38 876.909 1310.01 853.757 1339 827" stroke="#3973C8" stroke-width="3" stroke-linecap="round"/>
<path d="M1837 149C1823.55 172.271 1810.25 195.615 1797 219" stroke="#1E54AE" stroke-width="3" stroke-linecap="round"/>
<path d="M1843 147C1829.29 174.121 1813.41 199.468 1797 225" stroke="#1E54AE" stroke-width="3" stroke-linecap="round"/>
<path d="M1857 153C1835.65 191.435 1811.29 227.986 1791 267" stroke="#1E54AE" stroke-width="3" stroke-linecap="round"/>
<path d="M41 467C61.2818 470.837 80.6878 455.881 95 443" stroke="#2161CA" stroke-width="3" stroke-linecap="round"/>
<path d="M29 465C49.8099 464.557 66.304 457.569 85 449" stroke="#2161CA" stroke-width="3" stroke-linecap="round"/>
<path d="M31 399C33.0683 421.752 76.052 426.304 93 425" stroke="#2161CA" stroke-width="3" stroke-linecap="round"/>
<path d="M47 405C60.3328 412.096 72.3859 412.421 87 415" stroke="#2161CA" stroke-width="3" stroke-linecap="round"/>
<path d="M47 387C61.5045 397.503 75.989 397.266 93 401" stroke="#2161CA" stroke-width="3" stroke-linecap="round"/>
<path d="M55 385L81 395" stroke="#2161CA" stroke-width="3" stroke-linecap="round"/>
<path d="M1661 893C1672.76 880.679 1683.88 867.878 1695 855" stroke="#1E55B0" stroke-width="3" stroke-linecap="round"/>
<path d="M1653 903C1666.76 908.733 1702.69 846.627 1711 835" stroke="#1E55B0" stroke-width="3" stroke-linecap="round"/>
<path d="M1663 917C1675.09 904.423 1687.01 891.675 1699 879" stroke="#1E55B0" stroke-width="3" stroke-linecap="round"/>
<path d="M1667 919C1687.92 898.479 1704.69 875.785 1723 853" stroke="#1E55B0" stroke-width="3" stroke-linecap="round"/>
<path d="M1651 919C1663.95 909.289 1674.18 894.802 1685 883" stroke="#1E55B0" stroke-width="3" stroke-linecap="round"/>
<path d="M1741 505C1745.49 498.515 1750.92 493.275 1756.22 487.444C1775.78 465.929 1793.69 442.663 1810.56 419C1830.01 391.712 1846.1 362.801 1861 333" stroke="#1E55B0" stroke-width="3" stroke-linecap="round" stroke-dasharray="6 6"/>
<path d="M53 907C97.0077 877.308 140.541 846.844 183 815" stroke="#1E55B0" stroke-width="3" stroke-linecap="round" stroke-dasharray="6 6"/>
<path d="M43 933C83.8349 901.001 125.424 870.027 167 839" stroke="#1E55B0" stroke-width="3" stroke-linecap="round" stroke-dasharray="6 6"/>
<path d="M459 849C452.368 859.876 443.323 868.732 434.778 878.111C413.372 901.605 392.216 925.336 371 949" stroke="#1E55B0" stroke-width="3" stroke-linecap="round" stroke-dasharray="6 6"/>
<path d="M853 51C868.775 39.503 882.767 25.8219 899 15" stroke="#1F59B9" stroke-width="5" stroke-linecap="round"/>
<path d="M861 61C879.466 36.6588 909.976 19.6823 935 3" stroke="#1F59B9" stroke-width="5" stroke-linecap="round"/>
<path d="M945 9C921.657 34.5667 896.41 57.5446 871 81" stroke="#1F59B9" stroke-width="5" stroke-linecap="round"/>
<path d="M107 397C128.348 380.491 145.458 363.593 163 343" stroke="#124AAB" stroke-width="5" stroke-linecap="round"/>
<path d="M85 409C131.677 397.331 171.786 361.249 185 315" stroke="#124AAB" stroke-width="5" stroke-linecap="round"/>
<path d="M81 411C101.562 413.187 121.739 398.335 137.444 386.556C158.161 371.018 174.717 350.275 190.111 329.667C195.375 322.62 199.809 317.34 201 309" stroke="#124AAB" stroke-width="5" stroke-linecap="round"/>
<path d="M91 431C114.107 424.398 127.897 415.61 143 396.556C161.679 372.988 175.145 345.348 193 321" stroke="#124AAB" stroke-width="5" stroke-linecap="round"/>
<path d="M119 449C134.812 432.977 148.852 416.641 159.444 396.556C173.045 370.766 178.967 340.806 187 313" stroke="#124AAB" stroke-width="5" stroke-linecap="round"/>
<path d="M1365 853C1339.21 875.922 1315.65 901.051 1289 923" stroke="#124AAB" stroke-width="5" stroke-linecap="round"/>
<path d="M1373 861C1357.67 873.681 1342.1 886.059 1327 899" stroke="#124AAB" stroke-width="5" stroke-linecap="round"/>
<path d="M1367 875L1357 883" stroke="#124AAB" stroke-width="5" stroke-linecap="round"/>
<path d="M3 907C12.1932 901.747 20.6286 894.959 29.4444 889.111C59.347 869.275 90.1632 851.309 121 833" stroke="#124AAB" stroke-width="5" stroke-linecap="round" stroke-dasharray="10 10"/>
<path d="M65 843C80.665 830.95 98.2789 821.451 115 811" stroke="#124AAB" stroke-width="5" stroke-linecap="round" stroke-dasharray="10 10"/>
<path d="M129 827L161 807" stroke="#124AAB" stroke-width="5" stroke-linecap="round" stroke-dasharray="10 10"/>
</svg>
