<svg width="568" height="270" viewBox="0 0 568 270" fill="none" xmlns="http://www.w3.org/2000/svg">
<path d="M4.38206 139.327C9.61787 121.748 51.737 114.301 35.3328 100.529C22.265 89.5576 4.12934 112.417 4.38206 139.327Z" fill="#322E2E"/>
<path d="M4.15454 140.2C8.21993 121.99 52.0062 114.527 35.3328 100.529C19.0651 86.8711 -5.05636 125.641 8.21993 159.386C21.5291 193.213 59.9429 194.505 66.6168 152.882C71.9559 119.584 82.1893 47.9583 86.6386 16.3078C94.4248 38.4198 118.006 66.5151 150.041 2C141.142 54.4619 127.934 169.141 163.389 180.197M244.373 114.511V152.882C247.432 160.903 259.222 174.084 281.913 162.637" stroke="#2E2E35" stroke-width="7"/>
<path d="M244.861 140.554C240.455 115.809 200.187 113.976 191.887 136.623C179.492 170.441 234.379 183.17 244.861 152.882M308.22 119.389V136.623M308.22 170.116V136.623M308.22 136.623C311.835 127.518 318.9 121.766 331.594 121.766M368.876 119.389C364.983 138.574 364.482 183.212 390.149 159.711" stroke="#2E2E35" stroke-width="7"/>
<path d="M444.554 120.476C458.463 120.476 469.373 131.041 469.373 143.637C469.373 156.232 458.463 166.798 444.554 166.798C430.646 166.798 419.736 156.232 419.736 143.637C419.736 131.041 430.646 120.476 444.554 120.476Z" stroke="#2E2E35" stroke-width="7"/>
<path d="M317.61 196.959V233.201M317.61 269.444V233.201M317.61 233.201C330.638 230.602 356.884 229.806 357.646 247.423V269.444" stroke="#2E2E35" stroke-width="7"/>
<path d="M390.108 240.129H434.945C436.535 233.452 434.755 219.954 414.912 219.382C390.108 218.666 375.798 253.006 405.372 263.738C411.732 265.407 426.55 267.029 434.945 260.161" stroke="#2E2E35" stroke-width="7"/>
<path d="M516.747 240.129H563.534C565.193 233.452 563.335 219.954 542.629 219.382C516.747 218.666 501.815 253.006 532.674 263.738C539.311 265.407 554.774 267.029 563.534 260.161" stroke="#2E2E35" stroke-width="7"/>
<path d="M467.014 219.454V236.95M467.014 269.444V236.95M467.014 236.95C468.316 231.118 472.615 222.12 490.582 222.12" stroke="#2E2E35" stroke-width="7"/>
<ellipse cx="371.088" cy="107.103" rx="3.54432" ry="3.20766" fill="#2E2E35"/>
</svg>
