<svg width="561" height="294" viewBox="0 0 561 294" fill="none" xmlns="http://www.w3.org/2000/svg">
<path d="M4.37921 151.661C9.54956 132.48 51.1421 124.354 34.943 109.327C22.0386 97.3558 4.12966 122.299 4.37921 151.661Z" fill="#DDDE97"/>
<path d="M4.15454 152.614C8.1691 132.744 51.4079 124.6 34.943 109.327C18.8787 94.4245 -4.9412 136.728 8.1691 173.548C21.3118 210.459 59.2453 211.868 65.8358 166.452C71.1082 130.119 81.2136 51.9652 85.6072 17.43C93.2961 41.5573 116.582 72.2132 148.217 1.81824C139.429 59.0614 126.386 184.192 161.398 196.256M241.369 124.584V166.452C244.39 175.204 256.033 189.585 278.441 177.096" stroke="#DDDE97" stroke-width="7"/>
<path d="M241.851 153C237.5 126 197.736 124 189.539 148.711C177.3 185.611 231.5 199.5 241.851 166.452M304.418 129.906V148.711M304.418 185.257V148.711M304.418 148.711C307.988 138.776 314.964 132.5 327.5 132.5M364.316 129.906C360.471 150.84 359.976 199.545 385.323 173.903" stroke="#DDDE97" stroke-width="7"/>
<path d="M439.047 130.773C452.43 130.773 463.512 142.099 463.512 156.364C463.512 170.629 452.43 181.954 439.047 181.954C425.665 181.954 414.584 170.629 414.584 156.364C414.584 142.099 425.665 130.773 439.047 130.773Z" stroke="#DDDE97" stroke-width="7"/>
<path d="M313.691 214.546V254.091M313.691 293.636V254.091M313.691 254.091C326.555 251.254 352.473 250.387 353.226 269.609V293.636" stroke="#DDDE97" stroke-width="7"/>
<path d="M385.282 261.65H429.559C431.129 254.364 429.371 239.637 409.776 239.012C385.282 238.231 371.151 275.701 400.355 287.411C406.636 289.232 421.269 291.001 429.559 283.507" stroke="#DDDE97" stroke-width="7"/>
<path d="M510.338 261.65H556.54C558.178 254.364 556.343 239.637 535.896 239.012C510.338 238.231 495.592 275.701 526.066 287.411C532.62 289.232 547.889 291.001 556.54 283.507" stroke="#DDDE97" stroke-width="7"/>
<path d="M461.226 239.091V258.182M461.226 293.636V258.182M461.226 258.182C462.512 251.818 466.757 242 484.5 242" stroke="#DDDE97" stroke-width="7"/>
<circle cx="366.5" cy="116.5" r="3" fill="#DDDE97" stroke="#DDDE97"/>
</svg>
